<svg width="117" height="109" viewBox="0 0 117 109" fill="none" xmlns="http://www.w3.org/2000/svg">
<rect width="117" height="108.803" rx="10" fill="white"/>
<path d="M65.4139 75.7518C64.6775 75.7518 64.0622 75.6209 63.5679 75.3593C63.0737 75.0977 62.7006 74.6956 62.4487 74.153C62.1968 73.6006 62.0563 72.8884 62.0272 72.0162L64.2511 71.6819C64.2608 72.1858 64.3044 72.5928 64.3819 72.9029C64.4692 73.213 64.5854 73.4358 64.7308 73.5715C64.8857 73.7072 65.0699 73.7749 65.283 73.7749C65.5543 73.7749 65.7288 73.683 65.8064 73.4988C65.8936 73.3147 65.9371 73.1209 65.9371 72.9174C65.9371 72.4329 65.8209 72.0259 65.5884 71.6965C65.3557 71.3573 65.0408 71.0182 64.6435 70.679L63.6261 69.7923C63.1803 69.4144 62.8024 68.9881 62.4923 68.5133C62.192 68.0287 62.0417 67.4328 62.0417 66.7255C62.0417 65.7274 62.3372 64.9667 62.9284 64.4434C63.5195 63.9104 64.3238 63.644 65.3412 63.644C65.971 63.644 66.475 63.7506 66.8529 63.9637C67.2405 64.177 67.5312 64.458 67.7249 64.8068C67.9285 65.1459 68.0642 65.5093 68.1319 65.8969C68.2095 66.2749 68.2531 66.6382 68.2628 66.9871L66.0243 67.2632C66.0147 66.9144 65.9904 66.614 65.9516 66.3621C65.9227 66.1005 65.8548 65.9018 65.7482 65.7662C65.6416 65.6208 65.4769 65.5481 65.254 65.5481C65.0118 65.5481 64.8324 65.6499 64.7162 65.8533C64.6096 66.0569 64.5563 66.2603 64.5563 66.4639C64.5563 66.8998 64.6581 67.2585 64.8615 67.5395C65.0748 67.8108 65.3509 68.0966 65.69 68.397L66.664 69.2546C67.1775 69.6907 67.6087 70.1848 67.9575 70.7372C68.3161 71.2896 68.4953 71.9727 68.4953 72.7866C68.4953 73.339 68.3694 73.8428 68.1175 74.2983C67.8655 74.744 67.5069 75.0977 67.0419 75.3593C66.5864 75.6209 66.0437 75.7518 65.4139 75.7518ZM71.1215 75.7227C70.6951 75.7227 70.3366 75.6209 70.0458 75.4175C69.7551 75.214 69.5371 74.9572 69.3917 74.6471C69.2463 74.3273 69.1737 74.0027 69.1737 73.6733C69.1737 73.15 69.2754 72.709 69.479 72.3505C69.6921 71.9921 69.9682 71.6916 70.3075 71.4494C70.6466 71.2072 71.0197 71.0036 71.4267 70.8388C71.8336 70.6645 72.2359 70.5095 72.6331 70.3738V69.5307C72.6331 69.3853 72.6185 69.2594 72.5894 69.1528C72.5605 69.0366 72.512 68.9494 72.4441 68.8912C72.3763 68.8233 72.2745 68.7894 72.1389 68.7894C72.0032 68.7894 71.8966 68.8185 71.8192 68.8767C71.7513 68.9348 71.7029 69.0172 71.6738 69.1237C71.6447 69.2207 71.6253 69.3321 71.6156 69.458L71.5575 70.0686L69.3481 69.9813C69.3966 68.9736 69.663 68.2323 70.1476 67.7574C70.6418 67.2729 71.3782 67.0307 72.3569 67.0307C73.2097 67.0307 73.8444 67.2682 74.261 67.7429C74.6874 68.2081 74.9006 68.8137 74.9006 69.5598V73.4843C74.9006 73.8331 74.9054 74.1383 74.9151 74.4C74.9345 74.6616 74.9539 74.8894 74.9733 75.0832C75.0023 75.2769 75.0266 75.4417 75.046 75.5774H72.9237C72.8948 75.3545 72.8608 75.1122 72.8221 74.8505C72.7833 74.5889 72.7542 74.434 72.7348 74.3855C72.6379 74.7343 72.4538 75.0444 72.1824 75.3157C71.9208 75.5871 71.5672 75.7227 71.1215 75.7227ZM71.9645 74.1239C72.0614 74.1239 72.1486 74.1045 72.2262 74.0657C72.3133 74.027 72.3908 73.9736 72.4587 73.9058C72.5265 73.8381 72.5846 73.7702 72.6331 73.7024V71.4058C72.4393 71.5221 72.26 71.6431 72.0953 71.7691C71.9305 71.8855 71.7901 72.0162 71.6738 72.1616C71.5575 72.307 71.4655 72.4668 71.3976 72.6413C71.3395 72.806 71.3104 72.995 71.3104 73.2081C71.3104 73.4891 71.3686 73.712 71.4849 73.8767C71.6011 74.0415 71.761 74.1239 71.9645 74.1239ZM76.3099 78.339V67.1761H78.6791V67.7865C78.9601 67.5346 79.2606 67.3456 79.5803 67.2197C79.9001 67.0937 80.2053 67.0307 80.496 67.0307C80.8159 67.0307 81.0872 67.0937 81.31 67.2197C81.5425 67.3456 81.7315 67.5249 81.8768 67.7574C82.0222 67.9804 82.1288 68.242 82.1967 68.5424C82.2644 68.8427 82.2984 69.1625 82.2984 69.5016V73.1209C82.2984 73.6442 82.2258 74.0997 82.0804 74.4873C81.9447 74.8749 81.7412 75.1801 81.4698 75.4029C81.1985 75.6162 80.8642 75.7227 80.4669 75.7227C80.1666 75.7227 79.8613 75.6548 79.5513 75.5192C79.2509 75.3739 78.9601 75.1801 78.6791 74.9378V78.339H76.3099ZM79.3042 74.1965C79.4592 74.1965 79.5803 74.153 79.6676 74.0657C79.7547 73.9785 79.8177 73.867 79.8565 73.7314C79.905 73.586 79.9292 73.4261 79.9292 73.2517V69.3273C79.9292 69.1625 79.9098 69.0172 79.871 68.8912C79.8323 68.7555 79.7693 68.649 79.682 68.5714C79.5949 68.4939 79.4834 68.4551 79.3477 68.4551C79.2218 68.4551 79.1007 68.4842 78.9843 68.5424C78.8778 68.5908 78.776 68.6587 78.6791 68.7458V73.9785C78.7857 74.0463 78.8875 74.0997 78.9843 74.1384C79.091 74.1772 79.1976 74.1965 79.3042 74.1965Z" fill="#363737"/>
<path d="M49.2907 94.8788C48.5542 94.8788 47.9389 94.7479 47.4447 94.4863C46.9506 94.2246 46.5775 93.8226 46.3255 93.2799C46.0736 92.7276 45.933 92.0154 45.9041 91.1432L48.1278 90.8089C48.1375 91.3127 48.1811 91.7197 48.2587 92.0299C48.3459 92.34 48.4621 92.5628 48.6075 92.6985C48.7625 92.8341 48.9467 92.9019 49.1598 92.9019C49.4312 92.9019 49.6056 92.8099 49.6831 92.6258C49.7704 92.4416 49.814 92.2479 49.814 92.0443C49.814 91.5599 49.6977 91.1529 49.465 90.8235C49.2325 90.4843 48.9176 90.1452 48.5203 89.806L47.5029 88.9193C47.0571 88.5414 46.6792 88.115 46.3691 87.6403C46.0687 87.1557 45.9185 86.5597 45.9185 85.8525C45.9185 84.8543 46.214 84.0936 46.8052 83.5704C47.3962 83.0374 48.2005 82.771 49.218 82.771C49.8479 82.771 50.3517 82.8776 50.7296 83.0907C51.1173 83.3039 51.4079 83.585 51.6018 83.9338C51.8052 84.2729 51.9409 84.6363 52.0088 85.0239C52.0862 85.4019 52.1298 85.7652 52.1395 86.1141L49.9011 86.3902C49.8914 86.0414 49.8673 85.741 49.8285 85.489C49.7994 85.2274 49.7316 85.0288 49.625 84.8931C49.5183 84.7477 49.3537 84.6751 49.1307 84.6751C48.8885 84.6751 48.7093 84.7768 48.593 84.9803C48.4864 85.1838 48.4332 85.3873 48.4332 85.5908C48.4332 86.0268 48.5348 86.3854 48.7384 86.6664C48.9515 86.9378 49.2277 87.2236 49.5668 87.524L50.5407 88.3816C51.0543 88.8176 51.4855 89.3118 51.8343 89.8642C52.1929 90.4165 52.3722 91.0996 52.3722 91.9136C52.3722 92.4659 52.2462 92.9698 51.9942 93.4253C51.7422 93.8709 51.3837 94.2246 50.9187 94.4863C50.4632 94.7479 49.9205 94.8788 49.2907 94.8788ZM53.7337 97.1463V95.5038C54.034 95.5038 54.2812 95.4844 54.4749 95.4456C54.6785 95.4068 54.8286 95.3341 54.9256 95.2276C55.0322 95.121 55.0854 94.9756 55.0854 94.7915C55.0854 94.6269 55.0563 94.4282 54.9983 94.1955C54.9401 93.9533 54.8674 93.682 54.7802 93.3816L52.8033 86.303H55.0272L56.0884 91.1578L56.8877 86.303H59.1262L57.1931 94.9077C57.0671 95.4892 56.8685 95.9398 56.5971 96.2596C56.3258 96.589 55.9915 96.8167 55.5942 96.9427C55.2066 97.0784 54.7656 97.1463 54.2715 97.1463H53.7337ZM60.0163 94.7043V86.303H62.342V86.9716C62.6521 86.6712 62.9718 86.4581 63.3013 86.3321C63.6404 86.2062 63.9844 86.1432 64.3334 86.1432C64.6725 86.1432 64.9632 86.2303 65.2054 86.4048C65.4573 86.5694 65.6463 86.8166 65.7723 87.1461C66.1018 86.7778 66.4458 86.5211 66.8043 86.3757C67.1725 86.2206 67.5408 86.1432 67.909 86.1432C68.2384 86.1432 68.5243 86.2254 68.7665 86.3902C69.0088 86.5452 69.1977 86.7778 69.3334 87.0879C69.469 87.3883 69.5369 87.7516 69.5369 88.178V94.7043H67.2113V88.4251C67.2113 88.1926 67.1677 88.0278 67.0805 87.931C67.0029 87.8243 66.8819 87.771 66.7171 87.771C66.6201 87.771 66.4991 87.8001 66.3537 87.8583C66.2083 87.9067 66.0679 87.9794 65.9322 88.0764C65.9322 88.0956 65.9322 88.115 65.9322 88.1344C65.9322 88.1441 65.9322 88.1586 65.9322 88.178V94.7043H63.6357V88.4251C63.6357 88.1926 63.5921 88.0278 63.5048 87.931C63.4176 87.8243 63.2916 87.771 63.1269 87.771C63.0203 87.771 62.8944 87.8001 62.749 87.8583C62.6133 87.9067 62.4777 87.9794 62.342 88.0764V94.7043H60.0163ZM70.9604 97.4659V86.303H73.3295V86.9134C73.6105 86.6615 73.911 86.4726 74.2308 86.3466C74.5505 86.2206 74.8557 86.1577 75.1464 86.1577C75.4662 86.1577 75.7376 86.2206 75.9604 86.3466C76.1929 86.4726 76.382 86.6518 76.5272 86.8843C76.6726 87.1073 76.7793 87.3689 76.8471 87.6694C76.915 87.9696 76.9488 88.2895 76.9488 88.6286V92.2479C76.9488 92.7711 76.8762 93.2266 76.7308 93.6142C76.5951 94.0018 76.3916 94.307 76.1202 94.5299C75.8489 94.7431 75.5146 94.8497 75.1173 94.8497C74.817 94.8497 74.5117 94.7818 74.2017 94.6461C73.9013 94.5009 73.6105 94.307 73.3295 94.0648V97.4659H70.9604ZM73.9545 93.3235C74.1096 93.3235 74.2308 93.2799 74.3179 93.1926C74.4051 93.1055 74.4681 92.994 74.5069 92.8583C74.5554 92.7129 74.5796 92.5531 74.5796 92.3786V88.4542C74.5796 88.2895 74.5602 88.1441 74.5214 88.0181C74.4827 87.8825 74.4197 87.7759 74.3324 87.6983C74.2453 87.6209 74.1338 87.5821 73.9981 87.5821C73.8722 87.5821 73.7511 87.6112 73.6348 87.6694C73.5281 87.7177 73.4265 87.7856 73.3295 87.8728V93.1055C73.4362 93.1732 73.5378 93.2266 73.6348 93.2653C73.7414 93.3041 73.848 93.3235 73.9545 93.3235ZM78.3134 94.7043V82.9308H80.668V87.0443C80.9782 86.7342 81.3028 86.5114 81.642 86.3757C81.9811 86.2303 82.3445 86.1577 82.7321 86.1577C83.0713 86.1577 83.3522 86.2448 83.5752 86.4193C83.8077 86.5841 83.9822 86.8166 84.0984 87.117C84.2147 87.4077 84.2729 87.742 84.2729 88.1199V94.7043H81.9181V88.4542C81.9181 88.2507 81.8842 88.0956 81.8163 87.9891C81.7486 87.8825 81.6226 87.8292 81.4384 87.8292C81.3416 87.8292 81.2253 87.8583 81.0896 87.9164C80.954 87.9649 80.8134 88.0376 80.668 88.1344V94.7043H78.3134ZM88.4559 94.8497C87.855 94.8497 87.3318 94.7479 86.8861 94.5445C86.4501 94.3409 86.1108 94.0357 85.8686 93.6287C85.6361 93.2217 85.5198 92.7129 85.5198 92.1025V88.9048C85.5198 88.2943 85.6361 87.7856 85.8686 87.3786C86.1108 86.9716 86.4501 86.6664 86.8861 86.4629C87.3318 86.2594 87.855 86.1577 88.4559 86.1577C89.0566 86.1577 89.5751 86.2594 90.0112 86.4629C90.4568 86.6664 90.8008 86.9716 91.0431 87.3786C91.2854 87.7856 91.4065 88.2943 91.4065 88.9048V92.1025C91.4065 92.7129 91.2854 93.2217 91.0431 93.6287C90.8008 94.0357 90.4568 94.3409 90.0112 94.5445C89.5751 94.7479 89.0566 94.8497 88.4559 94.8497ZM88.4704 93.2799C88.6254 93.2799 88.7466 93.2411 88.8338 93.1637C88.921 93.0764 88.9792 92.9601 89.0083 92.8147C89.0469 92.6597 89.0663 92.4756 89.0663 92.2624V88.745C89.0663 88.5317 89.0469 88.3525 89.0083 88.2071C88.9792 88.052 88.921 87.9358 88.8338 87.8583C88.7466 87.771 88.6254 87.7274 88.4704 87.7274C88.3153 87.7274 88.1943 87.771 88.107 87.8583C88.0198 87.9358 87.9568 88.052 87.918 88.2071C87.8794 88.3525 87.86 88.5317 87.86 88.745V92.2624C87.86 92.4756 87.8794 92.6597 87.918 92.8147C87.9568 92.9601 88.0198 93.0764 88.107 93.1637C88.1943 93.2411 88.3153 93.2799 88.4704 93.2799ZM92.7205 94.7043V86.303H95.0897V87.1461C95.3997 86.836 95.7196 86.5938 96.049 86.4193C96.3882 86.2448 96.7419 86.1577 97.1101 86.1577C97.4589 86.1577 97.7448 86.2448 97.9676 86.4193C98.2002 86.5841 98.3746 86.8166 98.4909 87.117C98.6072 87.4077 98.6654 87.742 98.6654 88.1199V94.7043H96.3106V88.4542C96.3106 88.2507 96.2767 88.0956 96.2089 87.9891C96.141 87.8825 96.0151 87.8292 95.831 87.8292C95.734 87.8292 95.6178 87.8583 95.4821 87.9164C95.3562 87.9649 95.2254 88.0376 95.0897 88.1344V94.7043H92.7205ZM100.32 97.1463V95.5038C100.62 95.5038 100.867 95.4844 101.061 95.4456C101.265 95.4068 101.415 95.3341 101.512 95.2276C101.618 95.121 101.672 94.9756 101.672 94.7915C101.672 94.6269 101.643 94.4282 101.585 94.1955C101.526 93.9533 101.454 93.682 101.366 93.3816L99.3897 86.303H101.614L102.675 91.1578L103.474 86.303H105.712L103.779 94.9077C103.653 95.4892 103.455 95.9398 103.183 96.2596C102.912 96.589 102.578 96.8167 102.18 96.9427C101.793 97.0784 101.352 97.1463 100.858 97.1463H100.32Z" fill="#363737"/>
<path fill-rule="evenodd" clip-rule="evenodd" d="M40.5534 30.7542C32.6096 31.1389 25.095 34.4221 19.4712 39.9655C14.9906 44.382 11.9392 50.0088 10.703 56.1345C9.46682 62.2604 10.1013 68.61 12.5261 74.3804C14.951 80.1508 19.0574 85.0828 24.326 88.5529C29.5947 92.0229 35.7889 93.8749 42.1255 93.8749V89.815V83.2176V80.5276C38.4671 80.5276 34.8909 79.4583 31.8491 77.4549C28.8072 75.4515 26.4365 72.604 25.0365 69.2726C23.6366 65.941 23.2703 62.2752 23.984 58.7385C24.6977 55.2018 26.4594 51.9532 29.0462 49.4034C32.4296 46.0856 36.983 44.1852 41.7547 44.0996C41.7685 39.6612 41.7895 35.2231 41.8416 30.7853C41.4124 30.7664 40.9829 30.7561 40.5534 30.7542ZM59.3904 35.6977C59.3871 42.3273 59.3738 48.9571 59.32 55.5866C60.1789 57.7221 60.6209 59.9984 60.6223 62.2957H63.3511H70.0444H74.1633C74.1628 56.9965 72.8093 51.7827 70.2276 47.1346C67.6459 42.4864 63.919 38.5534 59.3904 35.6977Z" fill="#606942"/>
<path d="M57.9559 10.6223L56.7417 10.6723C53.0581 10.8234 48.8273 13.0056 46.4745 15.9685C45.0325 17.7845 43.7424 20.5442 43.3766 22.5957C43.1436 23.9029 43.0694 56.6941 43.0635 65.3865C43.059 71.6492 43.122 76.8393 43.203 76.9202C43.4227 77.1399 43.9228 77.103 45.9563 76.7173C52.1359 75.5454 56.9654 70.5118 57.8415 64.33C58.0014 63.2022 58.0634 29.0733 58.0209 21.7698L57.9559 10.6223ZM59.2199 10.6223L59.346 13.547C59.5241 17.6835 60.1757 19.7088 62.287 22.6886C64.403 25.675 68.1441 27.9423 71.859 28.4896C72.53 28.5884 73.3659 28.6813 73.7167 28.6961L74.3549 28.7228L74.2416 25.688C74.0596 20.7985 72.913 18.0273 69.7858 14.9199C68.4019 13.5448 67.5813 12.94 66.1257 12.2232C64.0611 11.2065 61.9605 10.6308 60.2999 10.6256L59.2199 10.6223ZM26.2169 58.9665L26.343 61.8914C26.5212 66.0279 27.1727 68.0529 29.284 71.0327C31.4 74.0191 35.1408 76.2864 38.8557 76.8337C39.5267 76.9325 40.3629 77.0254 40.7138 77.0402L41.3517 77.0674L41.2387 74.0321C41.0567 69.1427 39.91 66.3718 36.7828 63.2644C35.399 61.8893 34.5779 61.2845 33.1225 60.5678C31.0578 59.5511 28.9575 58.9751 27.2969 58.9699L26.2169 58.9665Z" fill="#404040"/>
</svg>
