<svg width="97" height="89" viewBox="0 0 97 89" fill="none" xmlns="http://www.w3.org/2000/svg">
<path d="M55.4139 65.7518C54.6775 65.7518 54.0622 65.6209 53.5679 65.3593C53.0737 65.0977 52.7006 64.6956 52.4487 64.153C52.1968 63.6006 52.0563 62.8884 52.0272 62.0162L54.2511 61.6819C54.2608 62.1858 54.3044 62.5928 54.3819 62.9029C54.4692 63.213 54.5854 63.4358 54.7308 63.5715C54.8857 63.7072 55.0699 63.7749 55.283 63.7749C55.5543 63.7749 55.7288 63.683 55.8064 63.4988C55.8936 63.3147 55.9371 63.1209 55.9371 62.9174C55.9371 62.4329 55.8209 62.0259 55.5884 61.6965C55.3557 61.3573 55.0408 61.0182 54.6435 60.679L53.6261 59.7923C53.1803 59.4144 52.8024 58.9881 52.4923 58.5133C52.192 58.0287 52.0417 57.4328 52.0417 56.7255C52.0417 55.7274 52.3372 54.9667 52.9284 54.4434C53.5195 53.9104 54.3238 53.644 55.3412 53.644C55.971 53.644 56.475 53.7506 56.8529 53.9637C57.2405 54.177 57.5312 54.458 57.7249 54.8068C57.9285 55.1459 58.0642 55.5093 58.1319 55.8969C58.2095 56.2749 58.2531 56.6382 58.2628 56.9871L56.0243 57.2632C56.0147 56.9144 55.9904 56.614 55.9516 56.3621C55.9227 56.1005 55.8548 55.9018 55.7482 55.7662C55.6416 55.6208 55.4769 55.5481 55.254 55.5481C55.0118 55.5481 54.8324 55.6499 54.7162 55.8533C54.6096 56.0569 54.5563 56.2603 54.5563 56.4639C54.5563 56.8998 54.6581 57.2585 54.8615 57.5395C55.0748 57.8108 55.3509 58.0966 55.69 58.397L56.664 59.2546C57.1775 59.6907 57.6087 60.1848 57.9575 60.7372C58.3161 61.2896 58.4953 61.9727 58.4953 62.7866C58.4953 63.339 58.3694 63.8428 58.1175 64.2983C57.8655 64.744 57.5069 65.0977 57.0419 65.3593C56.5864 65.6209 56.0437 65.7518 55.4139 65.7518ZM61.1215 65.7227C60.6951 65.7227 60.3366 65.6209 60.0458 65.4175C59.7551 65.214 59.5371 64.9572 59.3917 64.6471C59.2463 64.3273 59.1737 64.0027 59.1737 63.6733C59.1737 63.15 59.2754 62.709 59.479 62.3505C59.6921 61.9921 59.9682 61.6916 60.3075 61.4494C60.6466 61.2072 61.0197 61.0036 61.4267 60.8388C61.8336 60.6645 62.2359 60.5095 62.6331 60.3738V59.5307C62.6331 59.3853 62.6185 59.2594 62.5894 59.1528C62.5605 59.0366 62.512 58.9494 62.4441 58.8912C62.3763 58.8233 62.2745 58.7894 62.1389 58.7894C62.0032 58.7894 61.8966 58.8185 61.8192 58.8767C61.7513 58.9348 61.7029 59.0172 61.6738 59.1237C61.6447 59.2207 61.6253 59.3321 61.6156 59.458L61.5575 60.0686L59.3481 59.9813C59.3966 58.9736 59.663 58.2323 60.1476 57.7574C60.6418 57.2729 61.3782 57.0307 62.3569 57.0307C63.2097 57.0307 63.8444 57.2682 64.261 57.7429C64.6874 58.2081 64.9006 58.8137 64.9006 59.5598V63.4843C64.9006 63.8331 64.9054 64.1383 64.9151 64.4C64.9345 64.6616 64.9539 64.8894 64.9733 65.0832C65.0023 65.2769 65.0266 65.4417 65.046 65.5774H62.9237C62.8948 65.3545 62.8608 65.1122 62.8221 64.8505C62.7833 64.5889 62.7542 64.434 62.7348 64.3855C62.6379 64.7343 62.4538 65.0444 62.1824 65.3157C61.9208 65.5871 61.5672 65.7227 61.1215 65.7227ZM61.9645 64.1239C62.0614 64.1239 62.1486 64.1045 62.2262 64.0657C62.3133 64.027 62.3908 63.9736 62.4587 63.9058C62.5265 63.8381 62.5846 63.7702 62.6331 63.7024V61.4058C62.4393 61.5221 62.26 61.6431 62.0953 61.7691C61.9305 61.8855 61.7901 62.0162 61.6738 62.1616C61.5575 62.307 61.4655 62.4668 61.3976 62.6413C61.3395 62.806 61.3104 62.995 61.3104 63.2081C61.3104 63.4891 61.3686 63.712 61.4849 63.8767C61.6011 64.0415 61.761 64.1239 61.9645 64.1239ZM66.3099 68.339V57.1761H68.6791V57.7865C68.9601 57.5346 69.2606 57.3456 69.5803 57.2197C69.9001 57.0937 70.2053 57.0307 70.496 57.0307C70.8159 57.0307 71.0872 57.0937 71.31 57.2197C71.5425 57.3456 71.7315 57.5249 71.8768 57.7574C72.0222 57.9804 72.1288 58.242 72.1967 58.5424C72.2644 58.8427 72.2984 59.1625 72.2984 59.5016V63.1209C72.2984 63.6442 72.2258 64.0997 72.0804 64.4873C71.9447 64.8749 71.7412 65.1801 71.4698 65.4029C71.1985 65.6162 70.8642 65.7227 70.4669 65.7227C70.1666 65.7227 69.8613 65.6548 69.5513 65.5192C69.2509 65.3739 68.9601 65.1801 68.6791 64.9378V68.339H66.3099ZM69.3042 64.1965C69.4592 64.1965 69.5803 64.153 69.6676 64.0657C69.7547 63.9785 69.8177 63.867 69.8565 63.7314C69.905 63.586 69.9292 63.4261 69.9292 63.2517V59.3273C69.9292 59.1625 69.9098 59.0172 69.871 58.8912C69.8323 58.7555 69.7693 58.649 69.682 58.5714C69.5949 58.4939 69.4834 58.4551 69.3477 58.4551C69.2218 58.4551 69.1007 58.4842 68.9843 58.5424C68.8778 58.5908 68.776 58.6587 68.6791 58.7458V63.9785C68.7857 64.0463 68.8875 64.0997 68.9843 64.1384C69.091 64.1772 69.1976 64.1965 69.3042 64.1965Z" fill="#363737"/>
<path d="M39.2907 84.8788C38.5542 84.8788 37.9389 84.7479 37.4447 84.4863C36.9506 84.2246 36.5775 83.8226 36.3255 83.2799C36.0736 82.7276 35.933 82.0154 35.9041 81.1432L38.1278 80.8089C38.1375 81.3127 38.1811 81.7197 38.2587 82.0299C38.3459 82.34 38.4621 82.5628 38.6075 82.6985C38.7625 82.8341 38.9467 82.9019 39.1598 82.9019C39.4312 82.9019 39.6056 82.8099 39.6831 82.6258C39.7704 82.4416 39.814 82.2479 39.814 82.0443C39.814 81.5599 39.6977 81.1529 39.465 80.8235C39.2325 80.4843 38.9176 80.1452 38.5203 79.806L37.5029 78.9193C37.0571 78.5414 36.6792 78.115 36.3691 77.6403C36.0687 77.1557 35.9185 76.5597 35.9185 75.8525C35.9185 74.8543 36.214 74.0936 36.8052 73.5704C37.3962 73.0374 38.2005 72.771 39.218 72.771C39.8479 72.771 40.3517 72.8776 40.7296 73.0907C41.1173 73.3039 41.4079 73.585 41.6018 73.9338C41.8052 74.2729 41.9409 74.6363 42.0088 75.0239C42.0862 75.4019 42.1298 75.7652 42.1395 76.1141L39.9011 76.3902C39.8914 76.0414 39.8673 75.741 39.8285 75.489C39.7994 75.2274 39.7316 75.0288 39.625 74.8931C39.5183 74.7477 39.3537 74.6751 39.1307 74.6751C38.8885 74.6751 38.7093 74.7768 38.593 74.9803C38.4864 75.1838 38.4332 75.3873 38.4332 75.5908C38.4332 76.0268 38.5348 76.3854 38.7384 76.6664C38.9515 76.9378 39.2277 77.2236 39.5668 77.524L40.5407 78.3816C41.0543 78.8176 41.4855 79.3118 41.8343 79.8642C42.1929 80.4165 42.3722 81.0996 42.3722 81.9136C42.3722 82.4659 42.2462 82.9698 41.9942 83.4253C41.7422 83.8709 41.3837 84.2246 40.9187 84.4863C40.4632 84.7479 39.9205 84.8788 39.2907 84.8788ZM43.7337 87.1463V85.5038C44.034 85.5038 44.2812 85.4844 44.4749 85.4456C44.6785 85.4068 44.8286 85.3341 44.9256 85.2276C45.0322 85.121 45.0854 84.9756 45.0854 84.7915C45.0854 84.6269 45.0563 84.4282 44.9983 84.1955C44.9401 83.9533 44.8674 83.682 44.7802 83.3816L42.8033 76.303H45.0272L46.0884 81.1578L46.8877 76.303H49.1262L47.1931 84.9077C47.0671 85.4892 46.8685 85.9398 46.5971 86.2596C46.3258 86.589 45.9915 86.8167 45.5942 86.9427C45.2066 87.0784 44.7656 87.1463 44.2715 87.1463H43.7337ZM50.0163 84.7043V76.303H52.342V76.9716C52.6521 76.6712 52.9718 76.4581 53.3013 76.3321C53.6404 76.2062 53.9844 76.1432 54.3334 76.1432C54.6725 76.1432 54.9632 76.2303 55.2054 76.4048C55.4573 76.5694 55.6463 76.8166 55.7723 77.1461C56.1018 76.7778 56.4458 76.5211 56.8043 76.3757C57.1725 76.2206 57.5408 76.1432 57.909 76.1432C58.2384 76.1432 58.5243 76.2254 58.7665 76.3902C59.0088 76.5452 59.1977 76.7778 59.3334 77.0879C59.469 77.3883 59.5369 77.7516 59.5369 78.178V84.7043H57.2113V78.4251C57.2113 78.1926 57.1677 78.0278 57.0805 77.931C57.0029 77.8243 56.8819 77.771 56.7171 77.771C56.6201 77.771 56.4991 77.8001 56.3537 77.8583C56.2083 77.9067 56.0679 77.9794 55.9322 78.0764C55.9322 78.0956 55.9322 78.115 55.9322 78.1344C55.9322 78.1441 55.9322 78.1586 55.9322 78.178V84.7043H53.6357V78.4251C53.6357 78.1926 53.5921 78.0278 53.5048 77.931C53.4176 77.8243 53.2916 77.771 53.1269 77.771C53.0203 77.771 52.8944 77.8001 52.749 77.8583C52.6133 77.9067 52.4777 77.9794 52.342 78.0764V84.7043H50.0163ZM60.9604 87.4659V76.303H63.3295V76.9134C63.6105 76.6615 63.911 76.4726 64.2308 76.3466C64.5505 76.2206 64.8557 76.1577 65.1464 76.1577C65.4662 76.1577 65.7376 76.2206 65.9604 76.3466C66.1929 76.4726 66.382 76.6518 66.5272 76.8843C66.6726 77.1073 66.7793 77.3689 66.8471 77.6694C66.915 77.9696 66.9488 78.2895 66.9488 78.6286V82.2479C66.9488 82.7711 66.8762 83.2266 66.7308 83.6142C66.5951 84.0018 66.3916 84.307 66.1202 84.5299C65.8489 84.7431 65.5146 84.8497 65.1173 84.8497C64.817 84.8497 64.5117 84.7818 64.2017 84.6461C63.9013 84.5009 63.6105 84.307 63.3295 84.0648V87.4659H60.9604ZM63.9545 83.3235C64.1096 83.3235 64.2308 83.2799 64.3179 83.1926C64.4051 83.1055 64.4681 82.994 64.5069 82.8583C64.5554 82.7129 64.5796 82.5531 64.5796 82.3786V78.4542C64.5796 78.2895 64.5602 78.1441 64.5214 78.0181C64.4827 77.8825 64.4197 77.7759 64.3324 77.6983C64.2453 77.6209 64.1338 77.5821 63.9981 77.5821C63.8722 77.5821 63.7511 77.6112 63.6348 77.6694C63.5281 77.7177 63.4265 77.7856 63.3295 77.8728V83.1055C63.4362 83.1732 63.5378 83.2266 63.6348 83.2653C63.7414 83.3041 63.848 83.3235 63.9545 83.3235ZM68.3134 84.7043V72.9308H70.668V77.0443C70.9782 76.7342 71.3028 76.5114 71.642 76.3757C71.9811 76.2303 72.3445 76.1577 72.7321 76.1577C73.0713 76.1577 73.3522 76.2448 73.5752 76.4193C73.8077 76.5841 73.9822 76.8166 74.0984 77.117C74.2147 77.4077 74.2729 77.742 74.2729 78.1199V84.7043H71.9181V78.4542C71.9181 78.2507 71.8842 78.0956 71.8163 77.9891C71.7486 77.8825 71.6226 77.8292 71.4384 77.8292C71.3416 77.8292 71.2253 77.8583 71.0896 77.9164C70.954 77.9649 70.8134 78.0376 70.668 78.1344V84.7043H68.3134ZM78.4559 84.8497C77.855 84.8497 77.3318 84.7479 76.8861 84.5445C76.4501 84.3409 76.1108 84.0357 75.8686 83.6287C75.6361 83.2217 75.5198 82.7129 75.5198 82.1025V78.9048C75.5198 78.2943 75.6361 77.7856 75.8686 77.3786C76.1108 76.9716 76.4501 76.6664 76.8861 76.4629C77.3318 76.2594 77.855 76.1577 78.4559 76.1577C79.0566 76.1577 79.5751 76.2594 80.0112 76.4629C80.4568 76.6664 80.8008 76.9716 81.0431 77.3786C81.2854 77.7856 81.4065 78.2943 81.4065 78.9048V82.1025C81.4065 82.7129 81.2854 83.2217 81.0431 83.6287C80.8008 84.0357 80.4568 84.3409 80.0112 84.5445C79.5751 84.7479 79.0566 84.8497 78.4559 84.8497ZM78.4704 83.2799C78.6254 83.2799 78.7466 83.2411 78.8338 83.1637C78.921 83.0764 78.9792 82.9601 79.0083 82.8147C79.0469 82.6597 79.0663 82.4756 79.0663 82.2624V78.745C79.0663 78.5317 79.0469 78.3525 79.0083 78.2071C78.9792 78.052 78.921 77.9358 78.8338 77.8583C78.7466 77.771 78.6254 77.7274 78.4704 77.7274C78.3153 77.7274 78.1943 77.771 78.107 77.8583C78.0198 77.9358 77.9568 78.052 77.918 78.2071C77.8794 78.3525 77.86 78.5317 77.86 78.745V82.2624C77.86 82.4756 77.8794 82.6597 77.918 82.8147C77.9568 82.9601 78.0198 83.0764 78.107 83.1637C78.1943 83.2411 78.3153 83.2799 78.4704 83.2799ZM82.7205 84.7043V76.303H85.0897V77.1461C85.3997 76.836 85.7196 76.5938 86.049 76.4193C86.3882 76.2448 86.7419 76.1577 87.1101 76.1577C87.4589 76.1577 87.7448 76.2448 87.9676 76.4193C88.2002 76.5841 88.3746 76.8166 88.4909 77.117C88.6072 77.4077 88.6654 77.742 88.6654 78.1199V84.7043H86.3106V78.4542C86.3106 78.2507 86.2767 78.0956 86.2089 77.9891C86.141 77.8825 86.0151 77.8292 85.831 77.8292C85.734 77.8292 85.6178 77.8583 85.4821 77.9164C85.3562 77.9649 85.2254 78.0376 85.0897 78.1344V84.7043H82.7205ZM90.32 87.1463V85.5038C90.6204 85.5038 90.8674 85.4844 91.0613 85.4456C91.2647 85.4068 91.415 85.3341 91.5118 85.2276C91.6184 85.121 91.6717 84.9756 91.6717 84.7915C91.6717 84.6269 91.6427 84.4282 91.5845 84.1955C91.5265 83.9533 91.4538 83.682 91.3665 83.3816L89.3897 76.303H91.6136L92.6746 81.1578L93.4741 76.303H95.7125L93.7793 84.9077C93.6533 85.4892 93.4547 85.9398 93.1834 86.2596C92.912 86.589 92.5777 86.8167 92.1804 86.9427C91.7929 87.0784 91.352 87.1463 90.8578 87.1463H90.32Z" fill="#363737"/>
<path fill-rule="evenodd" clip-rule="evenodd" d="M30.5534 20.7542C22.6096 21.1389 15.095 24.4221 9.47118 29.9655C4.99057 34.382 1.93923 40.0088 0.703031 46.1345C-0.533176 52.2604 0.101272 58.61 2.52614 64.3804C4.95099 70.1508 9.05737 75.0828 14.326 78.5529C19.5947 82.0229 25.7889 83.8749 32.1255 83.8749V79.815V73.2176V70.5276C28.4671 70.5276 24.8909 69.4583 21.8491 67.4549C18.8072 65.4515 16.4365 62.604 15.0365 59.2726C13.6366 55.941 13.2703 52.2752 13.984 48.7385C14.6977 45.2018 16.4594 41.9532 19.0462 39.4034C22.4296 36.0856 26.983 34.1852 31.7547 34.0996C31.7685 29.6612 31.7895 25.2231 31.8416 20.7853C31.4124 20.7664 30.9829 20.7561 30.5534 20.7542ZM49.3904 25.6977C49.3871 32.3273 49.3738 38.9571 49.32 45.5866C50.1789 47.7221 50.6209 49.9984 50.6223 52.2957H53.3511H60.0444H64.1633C64.1628 46.9965 62.8093 41.7827 60.2276 37.1346C57.6459 32.4864 53.919 28.5534 49.3904 25.6977Z" fill="#606942"/>
<path d="M47.9559 0.622314L46.7417 0.672259C43.0581 0.823411 38.8273 3.00557 36.4745 5.96845C35.0325 7.78449 33.7424 10.5442 33.3766 12.5957C33.1436 13.9029 33.0694 46.6941 33.0635 55.3865C33.059 61.6492 33.122 66.8393 33.203 66.9202C33.4227 67.1399 33.9228 67.103 35.9563 66.7173C42.1359 65.5454 46.9654 60.5118 47.8415 54.33C48.0014 53.2022 48.0634 19.0733 48.0209 11.7698L47.9559 0.622314ZM49.2199 0.622314L49.346 3.54695C49.5241 7.68351 50.1757 9.70876 52.287 12.6886C54.403 15.675 58.1441 17.9423 61.859 18.4896C62.53 18.5884 63.3659 18.6813 63.7167 18.6961L64.3549 18.7228L64.2416 15.688C64.0596 10.7985 62.913 8.0273 59.7858 4.91991C58.4019 3.54481 57.5813 2.93998 56.1257 2.22322C54.0611 1.20651 51.9605 0.63083 50.2999 0.625641L49.2199 0.622314ZM16.2169 48.9665L16.343 51.8914C16.5212 56.0279 17.1727 58.0529 19.284 61.0327C21.4 64.0191 25.1408 66.2864 28.8557 66.8337C29.5267 66.9325 30.3629 67.0254 30.7138 67.0402L31.3517 67.0674L31.2387 64.0321C31.0567 59.1427 29.91 56.3718 26.7828 53.2644C25.399 51.8893 24.5779 51.2845 23.1225 50.5678C21.0578 49.5511 18.9575 48.9751 17.2969 48.9699L16.2169 48.9665Z" fill="#404040"/>
</svg>
